name rise30.6535peak61.5555fall82.9339.mot
datacolumns 19
datarows 35
range 17.58326500000000 17.63993700000000
endheader
time	ground_force1_vx	ground_force1_vy	ground_force1_vz	ground_force1_px	ground_force1_py	ground_force1_pz	ground_force2_vx	ground_force2_vy	ground_force2_vz	ground_force2_px	ground_force2_py	ground_force2_pz	ground_torque1_x	ground_torque1_y	ground_torque1_z	ground_torque2_x	ground_torque2_y	ground_torque2_z	
17.58326500000000	-48.63044000000000	808.18552699999998	53.30943600000000	0.15067000000000	0.00000000000000	0.12491400000000	-7.89465100000000	42.42332600000000	9.12146500000000	0.38010300000000	0.00000000000000	-0.06566300000000	0.00000000000000	27.56749900000000	0.00000000000000	0.00000000000000	6.22492700000000	0.00000000000000	
17.58492500000000	-48.88983000000000	805.61019099999999	53.08118500000000	0.15000100000000	0.00000000000000	0.12485700000000	-8.63615300000000	48.14782500000000	10.09307100000000	0.38268400000000	0.00000000000000	-0.06603200000000	0.00000000000000	27.45034100000000	0.00000000000000	0.00000000000000	6.92760500000000	0.00000000000000	
17.58659700000000	-49.16392100000000	802.91925300000003	52.83545600000000	0.14933600000000	0.00000000000000	0.12479700000000	-9.26477000000000	53.72829700000000	10.96539400000000	0.38513600000000	0.00000000000000	-0.06638300000000	0.00000000000000	27.33326100000000	0.00000000000000	0.00000000000000	7.56979900000000	0.00000000000000	
17.58826600000000	-49.45318600000000	800.11262099999999	52.57204300000000	0.14867800000000	0.00000000000000	0.12473600000000	-9.76770800000000	59.10561900000000	11.72447600000000	0.38747800000000	0.00000000000000	-0.06671800000000	0.00000000000000	27.21645000000000	0.00000000000000	0.00000000000000	8.14130300000000	0.00000000000000	
17.58992500000000	-49.75803400000000	797.19021599999996	52.29076300000000	0.14802600000000	0.00000000000000	0.12467300000000	-10.13881000000000	64.24619500000000	12.36334200000000	0.38972500000000	0.00000000000000	-0.06704000000000	0.00000000000000	27.10008400000000	0.00000000000000	0.00000000000000	8.63659500000000	0.00000000000000	
17.59159600000000	-50.07881100000000	794.15196600000002	51.99145800000000	0.14738000000000	0.00000000000000	0.12460800000000	-10.37806100000000	69.14101300000000	12.88152700000000	0.39189100000000	0.00000000000000	-0.06734900000000	0.00000000000000	26.98432800000000	0.00000000000000	0.00000000000000	9.05459200000000	0.00000000000000	
17.59326100000000	-50.41579100000000	790.99780599999997	51.67399500000000	0.14674200000000	0.00000000000000	0.12454100000000	-10.49067400000000	73.80283300000001	13.28414800000000	0.39398500000000	0.00000000000000	-0.06764700000000	0.00000000000000	26.86933200000000	0.00000000000000	0.00000000000000	9.39806200000000	0.00000000000000	
17.59493300000000	-50.76918400000000	787.72767299999998	51.33826500000000	0.14611100000000	0.00000000000000	0.12447100000000	-10.48591300000000	78.26206800000000	13.58067600000000	0.39601600000000	0.00000000000000	-0.06793400000000	0.00000000000000	26.75522800000000	0.00000000000000	0.00000000000000	9.67283800000000	0.00000000000000	
17.59660100000000	-51.13912200000000	784.34150399999999	50.98418600000000	0.14548800000000	0.00000000000000	0.12439900000000	-10.37578500000000	82.56193600000000	13.78356000000000	0.39798800000000	0.00000000000000	-0.06821300000000	0.00000000000000	26.64213400000000	0.00000000000000	0.00000000000000	9.88689900000000	0.00000000000000	
17.59826400000000	-51.52566400000000	780.83923400000003	50.61170200000000	0.14487400000000	0.00000000000000	0.12432500000000	-10.17373600000000	86.75339099999999	13.90684800000000	0.39990800000000	0.00000000000000	-0.06848300000000	0.00000000000000	26.53014800000000	0.00000000000000	0.00000000000000	10.04943900000000	0.00000000000000	
17.59992600000000	-51.92879200000000	777.22079399999996	50.22078400000000	0.14426800000000	0.00000000000000	0.12424700000000	-9.89346400000000	90.89030600000000	13.96491100000000	0.40177800000000	0.00000000000000	-0.06874700000000	0.00000000000000	26.41935000000000	0.00000000000000	0.00000000000000	10.16999200000000	0.00000000000000	
17.60161400000000	-52.34841000000000	773.48611200000005	49.81142800000000	0.14367200000000	0.00000000000000	0.12416700000000	-9.54790900000000	95.02522900000000	13.97135800000000	0.40360000000000	0.00000000000000	-0.06900300000000	0.00000000000000	26.30980000000000	0.00000000000000	0.00000000000000	10.25767800000000	0.00000000000000	
17.60326600000000	-52.78433900000000	769.63510299999996	49.38365800000000	0.14308400000000	0.00000000000000	0.12408300000000	-9.14848100000000	99.20596100000000	13.93819200000000	0.40537700000000	0.00000000000000	-0.06925500000000	0.00000000000000	26.20153900000000	0.00000000000000	0.00000000000000	10.32060500000000	0.00000000000000	
17.60493000000000	-53.23631800000000	765.66767800000002	48.93752300000000	0.14250600000000	0.00000000000000	0.12399600000000	-8.70453900000000	103.47306500000001	13.87523800000000	0.40710900000000	0.00000000000000	-0.06950100000000	0.00000000000000	26.09458700000000	0.00000000000000	0.00000000000000	10.36544400000000	0.00000000000000	
17.60659300000000	-53.70400100000000	761.58373700000004	48.47310000000000	0.14193700000000	0.00000000000000	0.12390600000000	-8.22312300000000	107.85834699999999	13.78982700000000	0.40879600000000	0.00000000000000	-0.06974300000000	0.00000000000000	25.98894200000000	0.00000000000000	0.00000000000000	10.39719500000000	0.00000000000000	
17.60825900000000	-54.18695500000000	757.38316699999996	47.99049400000000	0.14137800000000	0.00000000000000	0.12381300000000	-7.70889800000000	112.38422900000000	13.68672500000000	0.41043700000000	0.00000000000000	-0.06998100000000	0.00000000000000	25.88458000000000	0.00000000000000	0.00000000000000	10.41910400000000	0.00000000000000	
17.60992800000000	-54.68466300000000	753.06584499999997	47.48983500000000	0.14082800000000	0.00000000000000	0.12371600000000	-7.16430200000000	117.06391600000001	13.56826200000000	0.41203300000000	0.00000000000000	-0.07021600000000	0.00000000000000	25.78145700000000	0.00000000000000	0.00000000000000	10.43273700000000	0.00000000000000	
17.61161100000000	-55.19651700000000	748.63163699999996	46.97128100000000	0.14028800000000	0.00000000000000	0.12361600000000	-6.58981900000000	121.90219900000000	13.43461700000000	0.41358100000000	0.00000000000000	-0.07044800000000	0.00000000000000	25.67950500000000	0.00000000000000	0.00000000000000	10.43815400000000	0.00000000000000	
17.61326400000000	-55.72182000000000	744.08039499999995	46.43501600000000	0.13975600000000	0.00000000000000	0.12351100000000	-5.98436500000000	126.89669800000000	13.28421300000000	0.41508100000000	0.00000000000000	-0.07067800000000	0.00000000000000	25.57863400000000	0.00000000000000	0.00000000000000	10.43417000000000	0.00000000000000	
17.61493100000000	-56.25978600000000	739.41196100000002	45.88125300000000	0.13923400000000	0.00000000000000	0.12340300000000	-5.34571400000000	132.03939800000001	13.11416300000000	0.41653100000000	0.00000000000000	-0.07090600000000	0.00000000000000	25.47873300000000	0.00000000000000	0.00000000000000	10.41866000000000	0.00000000000000	
17.61659700000000	-56.80953900000000	734.62616300000002	45.31023000000000	0.13871900000000	0.00000000000000	0.12329200000000	-4.67093000000000	137.31828899999999	12.92073800000000	0.41792800000000	0.00000000000000	-0.07113300000000	0.00000000000000	25.37966900000000	0.00000000000000	0.00000000000000	10.38887800000000	0.00000000000000	
17.61826200000000	-57.37011300000000	729.72282099999995	44.72221200000000	0.13821300000000	0.00000000000000	0.12317600000000	-3.95678600000000	142.71897200000001	12.69980400000000	0.41927200000000	0.00000000000000	-0.07135800000000	0.00000000000000	25.28128700000000	0.00000000000000	0.00000000000000	10.34176400000000	0.00000000000000	
17.61992700000000	-57.94045100000000	724.70174399999996	44.11749100000000	0.13771500000000	0.00000000000000	0.12305700000000	-3.20011800000000	148.22612899999999	12.44721600000000	0.42056000000000	0.00000000000000	-0.07158200000000	0.00000000000000	25.18341000000000	0.00000000000000	0.00000000000000	10.27422100000000	0.00000000000000	
17.62159800000000	-58.51940800000000	719.56273299999998	43.49638600000000	0.13722300000000	0.00000000000000	0.12293400000000	-2.39812400000000	153.82476100000000	12.15913200000000	0.42179100000000	0.00000000000000	-0.07180600000000	0.00000000000000	25.08584200000000	0.00000000000000	0.00000000000000	10.18334700000000	0.00000000000000	
17.62325800000000	-59.10575200000000	714.30558599999995	42.85924200000000	0.13673900000000	0.00000000000000	0.12280600000000	-1.54857700000000	159.50116399999999	11.83226000000000	0.42296100000000	0.00000000000000	-0.07202900000000	0.00000000000000	24.98836700000000	0.00000000000000	0.00000000000000	10.06661000000000	0.00000000000000	
17.62492800000000	-59.69816300000000	708.93009500000005	42.20642900000000	0.13625900000000	0.00000000000000	0.12267500000000	-0.64996600000000	165.24360100000001	11.46401200000000	0.42407000000000	0.00000000000000	-0.07225100000000	0.00000000000000	24.89074900000000	0.00000000000000	0.00000000000000	9.92196700000000	0.00000000000000	
17.62661300000000	-60.29523600000000	703.43605600000001	41.53834500000000	0.13578500000000	0.00000000000000	0.12254000000000	0.29844200000000	171.04270299999999	11.05258800000000	0.42511400000000	0.00000000000000	-0.07247400000000	0.00000000000000	24.79273500000000	0.00000000000000	0.00000000000000	9.74793500000000	0.00000000000000	
17.62825800000000	-60.89548300000000	697.82326799999998	40.85541400000000	0.13531500000000	0.00000000000000	0.12240100000000	1.29659300000000	176.89160400000000	10.59698700000000	0.42609400000000	0.00000000000000	-0.07269600000000	0.00000000000000	24.69405300000000	0.00000000000000	0.00000000000000	9.54360100000000	0.00000000000000	
17.62993000000000	-61.49733600000000	692.09154200000000	40.15808200000000	0.13484800000000	0.00000000000000	0.12225700000000	2.34369900000000	182.78586799999999	10.09696600000000	0.42700500000000	0.00000000000000	-0.07291900000000	0.00000000000000	24.59441800000000	0.00000000000000	0.00000000000000	9.30860200000000	0.00000000000000	
17.63159100000000	-62.09914900000000	686.24070700000004	39.44682500000000	0.13438400000000	0.00000000000000	0.12211000000000	3.43832500000000	188.72324200000000	9.55295500000000	0.42784800000000	0.00000000000000	-0.07314200000000	0.00000000000000	24.49352700000000	0.00000000000000	0.00000000000000	9.04307200000000	0.00000000000000	
17.63325800000000	-62.69920200000000	680.27061400000002	38.72213900000000	0.13392100000000	0.00000000000000	0.12196000000000	4.57850000000000	194.70330200000001	8.96594800000000	0.42862000000000	0.00000000000000	-0.07336500000000	0.00000000000000	24.39106400000000	0.00000000000000	0.00000000000000	8.74756300000000	0.00000000000000	
17.63493300000000	-63.29570500000000	674.18114800000001	37.98454900000000	0.13345800000000	0.00000000000000	0.12180500000000	5.76183600000000	200.72702600000000	8.33737600000000	0.42932000000000	0.00000000000000	-0.07358800000000	0.00000000000000	24.28670400000000	0.00000000000000	0.00000000000000	8.42296500000000	0.00000000000000	
17.63659100000000	-63.88679900000000	667.97223299999996	37.23460000000000	0.13299500000000	0.00000000000000	0.12164600000000	6.98565800000000	206.79635800000000	7.66898700000000	0.42994800000000	0.00000000000000	-0.07381100000000	0.00000000000000	24.18010700000000	0.00000000000000	0.00000000000000	8.07041400000000	0.00000000000000	
17.63826500000000	-64.47056499999999	661.64384700000005	36.47286300000000	0.13252900000000	0.00000000000000	0.12148400000000	8.24710700000000	212.91377600000001	6.96272200000000	0.43050100000000	0.00000000000000	-0.07403500000000	0.00000000000000	24.07092700000000	0.00000000000000	0.00000000000000	7.69121000000000	0.00000000000000	
17.63993700000000	-65.04502500000000	655.19602599999996	35.69993000000000	0.13206100000000	0.00000000000000	0.12131800000000	9.54324900000000	219.08192199999999	6.22062100000000	0.43097900000000	0.00000000000000	-0.07425900000000	0.00000000000000	23.95880700000000	0.00000000000000	0.00000000000000	7.28674400000000	0.00000000000000	
